<svg id="Groupe_44" data-name="Groupe 44" xmlns="http://www.w3.org/2000/svg" viewBox="0 0 39.47 38.469">
  <path id="Tracé_101" data-name="Tracé 101" d="M39.056,23.627a4.135,4.135,0,0,0-1.919-1.919l-31.2-15.1A4.135,4.135,0,0,0,.3,11.87L5.721,25.43.3,38.991a4.136,4.136,0,0,0,5.641,5.261l31.2-15.1A4.135,4.135,0,0,0,39.056,23.627ZM4.737,41.767a1.378,1.378,0,0,1-1.88-1.753L8.139,26.808H35.652Zm3.4-17.716L2.857,10.845A1.378,1.378,0,0,1,4.737,9.1L35.652,24.051Z" transform="translate(0 -6.197)" fill="#25166b"/>
</svg>
