<svg xmlns="http://www.w3.org/2000/svg" width="1863" height="586.363" viewBox="0 0 1863 586.363">
  <g id="Groupe_51" data-name="Groupe 51" transform="translate(-42 -73)">
    <path id="Tracé_48" data-name="Tracé 48" d="M240,211.674v1.809a3.679,3.679,0,0,1,3.675,3.675h1.809a3.679,3.679,0,0,1,3.675-3.675v-1.809A3.679,3.679,0,0,1,245.484,208h-1.809A3.679,3.679,0,0,1,240,211.674Zm4.579-.661a5.527,5.527,0,0,0,1.565,1.565,5.527,5.527,0,0,0-1.565,1.565,5.527,5.527,0,0,0-1.565-1.565A5.524,5.524,0,0,0,244.58,211.014Z" transform="translate(1607.132 314.762)" fill="#fff"/>
    <path id="Tracé_49" data-name="Tracé 49" d="M3.675,17.105H5.484A3.679,3.679,0,0,1,9.158,13.43V11.622A3.679,3.679,0,0,1,5.484,7.947H3.675A3.679,3.679,0,0,1,0,11.622V13.43A3.679,3.679,0,0,1,3.675,17.105Zm.9-6.144a5.527,5.527,0,0,0,1.565,1.565,5.527,5.527,0,0,0-1.565,1.565,5.527,5.527,0,0,0-1.565-1.565A5.53,5.53,0,0,0,4.579,10.961Z" transform="translate(1388.293 161.567)" fill="#fff"/>
    <path id="Tracé_50" data-name="Tracé 50" d="M323.675,9.158h1.809a3.679,3.679,0,0,1,3.675-3.675V3.675A3.679,3.679,0,0,1,325.483,0h-1.809A3.679,3.679,0,0,1,320,3.675V5.483A3.679,3.679,0,0,1,323.675,9.158Zm.9-6.144a5.527,5.527,0,0,0,1.565,1.565,5.527,5.527,0,0,0-1.565,1.565,5.527,5.527,0,0,0-1.565-1.565A5.53,5.53,0,0,0,324.579,3.014Z" transform="translate(1385.304 169.514)" fill="#fff"/>
    <path id="Tracé_53" data-name="Tracé 53" d="M97.17,28.148h1.809a9.18,9.18,0,0,1,9.169-9.169V17.169A9.18,9.18,0,0,1,98.979,8H97.17A9.18,9.18,0,0,1,88,17.169v1.809A9.18,9.18,0,0,1,97.17,28.148Zm.9-15.784a11.045,11.045,0,0,0,5.71,5.71,11.044,11.044,0,0,0-5.71,5.71,11.045,11.045,0,0,0-5.71-5.71A11.045,11.045,0,0,0,98.075,12.363Z" transform="translate(1405.768 241.52)" fill="#fff"/>
    <path id="Tracé_45" data-name="Tracé 45" d="M85.026,168H83.217A3.22,3.22,0,0,1,80,171.217v1.809a3.22,3.22,0,0,1,3.217,3.217h1.809a3.22,3.22,0,0,1,3.217-3.217v-1.809A3.22,3.22,0,0,1,85.026,168Zm-.9,5.369a5.067,5.067,0,0,0-1.248-1.248,5.07,5.07,0,0,0,1.248-1.248,5.068,5.068,0,0,0,1.248,1.248A5.069,5.069,0,0,0,84.121,173.369Z" transform="translate(-0.489 -36.458)" fill="#fff"/>
    <path id="Tracé_46" data-name="Tracé 46" d="M16.485,279.337A7.346,7.346,0,0,1,9.148,272H7.339A7.346,7.346,0,0,1,0,279.337v1.809a7.346,7.346,0,0,1,7.338,7.338H9.148a7.346,7.346,0,0,1,7.338-7.338Zm-8.242,5.182a9.207,9.207,0,0,0-4.278-4.278,9.207,9.207,0,0,0,4.278-4.278,9.207,9.207,0,0,0,4.278,4.278A9.208,9.208,0,0,0,8.243,284.519Z" transform="translate(79.51 91.565)" fill="#fff"/>
    <path id="Tracé_47" data-name="Tracé 47" d="M437.483,168h-1.809A3.679,3.679,0,0,1,432,171.675v1.809a3.679,3.679,0,0,1,3.675,3.675h1.809a3.679,3.679,0,0,1,3.675-3.675v-1.809A3.679,3.679,0,0,1,437.483,168Zm-.9,6.144a5.527,5.527,0,0,0-1.565-1.565,5.527,5.527,0,0,0,1.565-1.565,5.527,5.527,0,0,0,1.565,1.565A5.528,5.528,0,0,0,436.579,174.144Z" transform="translate(122.331 54.383)" fill="#fff"/>
    <path id="Tracé_48-2" data-name="Tracé 48" d="M240,211.674v1.809a3.679,3.679,0,0,1,3.675,3.675h1.809a3.679,3.679,0,0,1,3.675-3.675v-1.809A3.679,3.679,0,0,1,245.484,208h-1.809A3.679,3.679,0,0,1,240,211.674Zm4.579-.661a5.527,5.527,0,0,0,1.565,1.565,5.527,5.527,0,0,0-1.565,1.565,5.527,5.527,0,0,0-1.565-1.565A5.524,5.524,0,0,0,244.58,211.014Z" transform="translate(225.744 100.208)" fill="#fff"/>
    <path id="Tracé_52" data-name="Tracé 52" d="M253.727,288h-1.809A11.93,11.93,0,0,1,240,299.917v1.809a11.93,11.93,0,0,1,11.917,11.917h1.809a11.93,11.93,0,0,1,11.917-11.917v-1.809A11.93,11.93,0,0,1,253.727,288Zm-.9,20.741a13.8,13.8,0,0,0-7.919-7.919,13.8,13.8,0,0,0,7.919-7.919,13.8,13.8,0,0,0,7.919,7.919A13.8,13.8,0,0,0,252.822,308.741Z" transform="translate(225.744 -169.279)" fill="#fff"/>
    <path id="Tracé_46-2" data-name="Tracé 46" d="M16.485,279.337A7.346,7.346,0,0,1,9.148,272H7.339A7.346,7.346,0,0,1,0,279.337v1.809a7.346,7.346,0,0,1,7.338,7.338H9.148a7.346,7.346,0,0,1,7.338-7.338Zm-8.242,5.182a9.207,9.207,0,0,0-4.278-4.278,9.207,9.207,0,0,0,4.278-4.278,9.207,9.207,0,0,0,4.278,4.278A9.208,9.208,0,0,0,8.243,284.519Z" transform="translate(665.294 63.764)" fill="#fff"/>
    <path id="Tracé_47-2" data-name="Tracé 47" d="M437.483,168h-1.809A3.679,3.679,0,0,1,432,171.675v1.809a3.679,3.679,0,0,1,3.675,3.675h1.809a3.679,3.679,0,0,1,3.675-3.675v-1.809A3.679,3.679,0,0,1,437.483,168Zm-.9,6.144a5.527,5.527,0,0,0-1.565-1.565,5.527,5.527,0,0,0,1.565-1.565,5.527,5.527,0,0,0,1.565,1.565A5.528,5.528,0,0,0,436.579,174.144Z" transform="translate(984.678 225.073)" fill="#fff"/>
    <path id="Tracé_53-2" data-name="Tracé 53" d="M97.17,28.148h1.809a9.18,9.18,0,0,1,9.169-9.169V17.169A9.18,9.18,0,0,1,98.979,8H97.17A9.18,9.18,0,0,1,88,17.169v1.809A9.18,9.18,0,0,1,97.17,28.148Zm.9-15.784a11.045,11.045,0,0,0,5.71,5.71,11.044,11.044,0,0,0-5.71,5.71,11.045,11.045,0,0,0-5.71-5.71A11.045,11.045,0,0,0,98.075,12.363Z" transform="translate(907.391 90.573)" fill="#fff"/>
    <path id="Tracé_46-3" data-name="Tracé 46" d="M16.485,279.337A7.346,7.346,0,0,1,9.148,272H7.339A7.346,7.346,0,0,1,0,279.337v1.809a7.346,7.346,0,0,1,7.338,7.338H9.148a7.346,7.346,0,0,1,7.338-7.338Zm-8.242,5.182a9.207,9.207,0,0,0-4.278-4.278,9.207,9.207,0,0,0,4.278-4.278,9.207,9.207,0,0,0,4.278,4.278A9.208,9.208,0,0,0,8.243,284.519Z" transform="translate(1209.499 -53.279)" fill="#fff"/>
    <path id="Tracé_47-3" data-name="Tracé 47" d="M437.483,168h-1.809A3.679,3.679,0,0,1,432,171.675v1.809a3.679,3.679,0,0,1,3.675,3.675h1.809a3.679,3.679,0,0,1,3.675-3.675v-1.809A3.679,3.679,0,0,1,437.483,168Zm-.9,6.144a5.527,5.527,0,0,0-1.565-1.565,5.527,5.527,0,0,0,1.565-1.565,5.527,5.527,0,0,0,1.565,1.565A5.528,5.528,0,0,0,436.579,174.144Z" transform="translate(1236.883 166.848)" fill="#fff"/>
    <path id="Tracé_49-2" data-name="Tracé 49" d="M3.675,17.105H5.484A3.679,3.679,0,0,1,9.158,13.43V11.622A3.679,3.679,0,0,1,5.484,7.947H3.675A3.679,3.679,0,0,1,0,11.622V13.43A3.679,3.679,0,0,1,3.675,17.105Zm.9-6.144a5.527,5.527,0,0,0,1.565,1.565,5.527,5.527,0,0,0-1.565,1.565,5.527,5.527,0,0,0-1.565-1.565A5.53,5.53,0,0,0,4.579,10.961Z" transform="translate(745.5 146.716)" fill="#fff"/>
    <path id="Tracé_53-3" data-name="Tracé 53" d="M97.17,28.148h1.809a9.18,9.18,0,0,1,9.169-9.169V17.169A9.18,9.18,0,0,1,98.979,8H97.17A9.18,9.18,0,0,1,88,17.169v1.809A9.18,9.18,0,0,1,97.17,28.148Zm.9-15.784a11.045,11.045,0,0,0,5.71,5.71,11.044,11.044,0,0,0-5.71,5.71,11.045,11.045,0,0,0-5.71-5.71A11.045,11.045,0,0,0,98.075,12.363Z" transform="translate(897.317 450.522)" fill="#fff"/>
    <path id="Tracé_170" data-name="Tracé 170" d="M253.727,288h-1.809A11.93,11.93,0,0,1,240,299.917v1.809a11.93,11.93,0,0,1,11.917,11.917h1.809a11.93,11.93,0,0,1,11.917-11.917v-1.809A11.93,11.93,0,0,1,253.727,288Zm-.9,20.741a13.8,13.8,0,0,0-7.919-7.919,13.8,13.8,0,0,0,7.919-7.919,13.8,13.8,0,0,0,7.919,7.919A13.8,13.8,0,0,0,252.822,308.741Z" transform="translate(1160.192 345.721)" fill="#fff"/>
    <path id="Tracé_171" data-name="Tracé 171" d="M253.727,288h-1.809A11.93,11.93,0,0,1,240,299.917v1.809a11.93,11.93,0,0,1,11.917,11.917h1.809a11.93,11.93,0,0,1,11.917-11.917v-1.809A11.93,11.93,0,0,1,253.727,288Zm-.9,20.741a13.8,13.8,0,0,0-7.919-7.919,13.8,13.8,0,0,0,7.919-7.919,13.8,13.8,0,0,0,7.919,7.919A13.8,13.8,0,0,0,252.822,308.741Z" transform="translate(1160.192 345.721)" fill="#fff"/>
    <path id="Tracé_172" data-name="Tracé 172" d="M253.727,288h-1.809A11.93,11.93,0,0,1,240,299.917v1.809a11.93,11.93,0,0,1,11.917,11.917h1.809a11.93,11.93,0,0,1,11.917-11.917v-1.809A11.93,11.93,0,0,1,253.727,288Zm-.9,20.741a13.8,13.8,0,0,0-7.919-7.919,13.8,13.8,0,0,0,7.919-7.919,13.8,13.8,0,0,0,7.919,7.919A13.8,13.8,0,0,0,252.822,308.741Z" transform="translate(1564.192 -43.975)" fill="#fff"/>
    <path id="Tracé_173" data-name="Tracé 173" d="M253.727,288h-1.809A11.93,11.93,0,0,1,240,299.917v1.809a11.93,11.93,0,0,1,11.917,11.917h1.809a11.93,11.93,0,0,1,11.917-11.917v-1.809A11.93,11.93,0,0,1,253.727,288Zm-.9,20.741a13.8,13.8,0,0,0-7.919-7.919,13.8,13.8,0,0,0,7.919-7.919,13.8,13.8,0,0,0,7.919,7.919A13.8,13.8,0,0,0,252.822,308.741Z" transform="translate(1564.192 -43.975)" fill="#fff"/>
    <rect id="Rectangle_61" data-name="Rectangle 61" width="1" height="1" transform="translate(42 73)" fill="#251768"/>
    <rect id="Rectangle_62" data-name="Rectangle 62" width="1" height="1" transform="translate(43 417)" fill="#251768"/>
    <rect id="Rectangle_63" data-name="Rectangle 63" width="1" height="1" transform="translate(1903 594)" fill="#291a72"/>
    <rect id="Rectangle_64" data-name="Rectangle 64" width="1" height="1" transform="translate(1904 74)" fill="#130b36"/>
  </g>
</svg>


