<svg xmlns="http://www.w3.org/2000/svg" width="1864" height="389.192" viewBox="0 0 1864 389.192">
  <g id="Groupe_52" data-name="Groupe 52" transform="translate(-43 -686.808)">
    <path id="Tracé_48" data-name="Tracé 48" d="M240,211.674v1.809a3.679,3.679,0,0,1,3.675,3.675h1.809a3.679,3.679,0,0,1,3.675-3.675v-1.809A3.679,3.679,0,0,1,245.484,208h-1.809A3.679,3.679,0,0,1,240,211.674Zm4.579-.661a5.527,5.527,0,0,0,1.565,1.565,5.527,5.527,0,0,0-1.565,1.565,5.527,5.527,0,0,0-1.565-1.565A5.524,5.524,0,0,0,244.58,211.014Z" transform="translate(1328.132 519.732)" fill="#fff"/>
    <path id="Tracé_50" data-name="Tracé 50" d="M323.675,9.158h1.809a3.679,3.679,0,0,1,3.675-3.675V3.675A3.679,3.679,0,0,1,325.483,0h-1.809A3.679,3.679,0,0,1,320,3.675V5.483A3.679,3.679,0,0,1,323.675,9.158Zm.9-6.144a5.527,5.527,0,0,0,1.565,1.565,5.527,5.527,0,0,0-1.565,1.565,5.527,5.527,0,0,0-1.565-1.565A5.53,5.53,0,0,0,324.579,3.014Z" transform="translate(1522.657 950.784)" fill="#fff"/>
    <path id="Tracé_47" data-name="Tracé 47" d="M437.483,168h-1.809A3.679,3.679,0,0,1,432,171.675v1.809a3.679,3.679,0,0,1,3.675,3.675h1.809a3.679,3.679,0,0,1,3.675-3.675v-1.809A3.679,3.679,0,0,1,437.483,168Zm-.9,6.144a5.527,5.527,0,0,0-1.565-1.565,5.527,5.527,0,0,0,1.565-1.565,5.527,5.527,0,0,0,1.565,1.565A5.528,5.528,0,0,0,436.579,174.144Z" transform="translate(734.984 803.848)" fill="#fff"/>
    <path id="Tracé_49" data-name="Tracé 49" d="M3.675,17.105H5.484A3.679,3.679,0,0,1,9.158,13.43V11.622A3.679,3.679,0,0,1,5.484,7.947H3.675A3.679,3.679,0,0,1,0,11.622V13.43A3.679,3.679,0,0,1,3.675,17.105Zm.9-6.144a5.527,5.527,0,0,0,1.565,1.565,5.527,5.527,0,0,0-1.565,1.565,5.527,5.527,0,0,0-1.565-1.565A5.53,5.53,0,0,0,4.579,10.961Z" transform="translate(795.5 973.059)" fill="#fff"/>
    <path id="Tracé_53" data-name="Tracé 53" d="M97.17,28.148h1.809a9.18,9.18,0,0,1,9.169-9.169V17.169A9.18,9.18,0,0,1,98.979,8H97.17A9.18,9.18,0,0,1,88,17.169v1.809A9.18,9.18,0,0,1,97.17,28.148Zm.9-15.784a11.045,11.045,0,0,0,5.71,5.71,11.044,11.044,0,0,0-5.71,5.71,11.045,11.045,0,0,0-5.71-5.71A11.045,11.045,0,0,0,98.075,12.363Z" transform="translate(1464.563 863.647)" fill="#fff"/>
    <path id="Tracé_174" data-name="Tracé 174" d="M97.17,28.148h1.809a9.18,9.18,0,0,1,9.169-9.169V17.169A9.18,9.18,0,0,1,98.979,8H97.17A9.18,9.18,0,0,1,88,17.169v1.809A9.18,9.18,0,0,1,97.17,28.148Zm.9-15.784a11.045,11.045,0,0,0,5.71,5.71,11.044,11.044,0,0,0-5.71,5.71,11.045,11.045,0,0,0-5.71-5.71A11.045,11.045,0,0,0,98.075,12.363Z" transform="translate(422.465 728.89)" fill="#fff"/>
    <path id="Tracé_176" data-name="Tracé 176" d="M253.727,288h-1.809A11.93,11.93,0,0,1,240,299.917v1.809a11.93,11.93,0,0,1,11.917,11.917h1.809a11.93,11.93,0,0,1,11.917-11.917v-1.809A11.93,11.93,0,0,1,253.727,288Zm-.9,20.741a13.8,13.8,0,0,0-7.919-7.919,13.8,13.8,0,0,0,7.919-7.919,13.8,13.8,0,0,0,7.919,7.919A13.8,13.8,0,0,0,252.822,308.741Z" transform="translate(834.099 593.721)" fill="#fff"/>
    <path id="Tracé_173" data-name="Tracé 173" d="M253.727,288h-1.809A11.93,11.93,0,0,1,240,299.917v1.809a11.93,11.93,0,0,1,11.917,11.917h1.809a11.93,11.93,0,0,1,11.917-11.917v-1.809A11.93,11.93,0,0,1,253.727,288Zm-.9,20.741a13.8,13.8,0,0,0-7.919-7.919,13.8,13.8,0,0,0,7.919-7.919,13.8,13.8,0,0,0,7.919,7.919A13.8,13.8,0,0,0,252.822,308.741Z" transform="translate(1577.014 481.859)" fill="#fff"/>
    <path id="Tracé_47-2" data-name="Tracé 47" d="M437.483,168h-1.809A3.679,3.679,0,0,1,432,171.675v1.809a3.679,3.679,0,0,1,3.675,3.675h1.809a3.679,3.679,0,0,1,3.675-3.675v-1.809A3.679,3.679,0,0,1,437.483,168Zm-.9,6.144a5.527,5.527,0,0,0-1.565-1.565,5.527,5.527,0,0,0,1.565-1.565,5.527,5.527,0,0,0,1.565,1.565A5.528,5.528,0,0,0,436.579,174.144Z" transform="translate(-205.998 518.808)" fill="#fff"/>
    <path id="Tracé_52" data-name="Tracé 52" d="M253.727,288h-1.809A11.93,11.93,0,0,1,240,299.917v1.809a11.93,11.93,0,0,1,11.917,11.917h1.809a11.93,11.93,0,0,1,11.917-11.917v-1.809A11.93,11.93,0,0,1,253.727,288Zm-.9,20.741a13.8,13.8,0,0,0-7.919-7.919,13.8,13.8,0,0,0,7.919-7.919,13.8,13.8,0,0,0,7.919,7.919A13.8,13.8,0,0,0,252.822,308.741Z" transform="translate(-144.006 456.216)" fill="#fff"/>
    <path id="Tracé_178" data-name="Tracé 178" d="M437.483,168h-1.809A3.679,3.679,0,0,1,432,171.675v1.809a3.679,3.679,0,0,1,3.675,3.675h1.809a3.679,3.679,0,0,1,3.675-3.675v-1.809A3.679,3.679,0,0,1,437.483,168Zm-.9,6.144a5.527,5.527,0,0,0-1.565-1.565,5.527,5.527,0,0,0,1.565-1.565,5.527,5.527,0,0,0,1.565,1.565A5.528,5.528,0,0,0,436.579,174.144Z" transform="translate(-340.584 758.808)" fill="#fff"/>
    <path id="Tracé_180" data-name="Tracé 180" d="M16.485,279.337A7.346,7.346,0,0,1,9.148,272H7.339A7.346,7.346,0,0,1,0,279.337v1.809a7.346,7.346,0,0,1,7.338,7.338H9.148a7.346,7.346,0,0,1,7.338-7.338Zm-8.242,5.182a9.207,9.207,0,0,0-4.278-4.278,9.207,9.207,0,0,0,4.278-4.278,9.207,9.207,0,0,0,4.278,4.278A9.208,9.208,0,0,0,8.243,284.519Z" transform="translate(834.51 541.565)" fill="#fff"/>
    <path id="Tracé_181" data-name="Tracé 181" d="M16.485,279.337A7.346,7.346,0,0,1,9.148,272H7.339A7.346,7.346,0,0,1,0,279.337v1.809a7.346,7.346,0,0,1,7.338,7.338H9.148a7.346,7.346,0,0,1,7.338-7.338Zm-8.242,5.182a9.207,9.207,0,0,0-4.278-4.278,9.207,9.207,0,0,0,4.278-4.278,9.207,9.207,0,0,0,4.278,4.278A9.208,9.208,0,0,0,8.243,284.519Z" transform="translate(483.145 683.364)" fill="#fff"/>
    <rect id="Rectangle_65" data-name="Rectangle 65" width="2" height="1" transform="translate(1905 687)" fill="#25176b"/>
    <rect id="Rectangle_66" data-name="Rectangle 66" width="2" height="1" transform="translate(1905 1075)" fill="#1c1050"/>
    <rect id="Rectangle_67" data-name="Rectangle 67" width="2" height="4" transform="translate(44 1072)" fill="#130b36"/>
    <rect id="Rectangle_68" data-name="Rectangle 68" width="1" height="2" transform="translate(43 707)" fill="#221462"/>
  </g>
</svg>
